<?xml version="1.0" encoding="UTF-8" standalone="no"?>
<svg
   id="svg"
   version="1.1"
   viewBox="0 0 300 300"
   width="300"
   height="300"
   sodipodi:docname="icon.svg"
   inkscape:export-filename="icon41.png"
   inkscape:export-xdpi="96"
   inkscape:export-ydpi="96"
   inkscape:version="1.2.2 (b0a8486541, 2022-12-01)"
   xmlns:inkscape="http://www.inkscape.org/namespaces/inkscape"
   xmlns:sodipodi="http://sodipodi.sourceforge.net/DTD/sodipodi-0.dtd"
   xmlns="http://www.w3.org/2000/svg"
   xmlns:svg="http://www.w3.org/2000/svg">
  <defs
     id="defs28" />
  <sodipodi:namedview
     id="namedview26"
     pagecolor="#ffffff"
     bordercolor="#000000"
     borderopacity="0.25"
     inkscape:showpageshadow="2"
     inkscape:pageopacity="0.0"
     inkscape:pagecheckerboard="0"
     inkscape:deskcolor="#d1d1d1"
     showgrid="false"
     inkscape:zoom="2.8366667"
     inkscape:cx="169.03643"
     inkscape:cy="155.11163"
     inkscape:window-width="1920"
     inkscape:window-height="1022"
     inkscape:window-x="0"
     inkscape:window-y="0"
     inkscape:window-maximized="1"
     inkscape:current-layer="g21"
     showguides="true" />
  <svg
     version="1.1"
     id="svg23">
    <defs
       id="defs5">
      <clipPath
         id="clip-1">
        <rect
           x="0"
           y="0"
           transform="scale(0.14648,0.14648)"
           width="2048"
           height="2048"
           fill="none"
           id="rect2" />
      </clipPath>
    </defs>
    <g
       clip-path="url(#clip-1)"
       fill="none"
       fill-rule="nonzero"
       stroke="none"
       stroke-width="1"
       stroke-linecap="butt"
       stroke-linejoin="miter"
       stroke-miterlimit="10"
       stroke-dasharray=""
       stroke-dashoffset="0"
       font-family="none"
       font-weight="none"
       font-size="none"
       text-anchor="none"
       style="mix-blend-mode: normal"
       id="g21">
      <path
         d="M 0.6801378,0.62496239 H 300.68014 V 300.62496 H 0.6801378 Z"
         fill="#ffffff"
         id="path7"
         sodipodi:insensitive="true" />
      <path
         d="m 149.26638,36.762611 c 7.46164,-0.536491 10.67109,3.38147 16.22627,8.007695 22.07283,18.406091 43.87794,37.137513 65.40797,56.188134 6.38786,5.55728 12.721,11.17934 18.99795,16.86511 1.0072,0.91136 2.02772,1.82168 3.0231,2.74439 4.00814,3.71143 7.52967,5.94559 8.05027,11.87387 0.29285,3.30208 -0.75134,6.58297 -2.89443,9.0965 -2.04991,2.44443 -4.99168,3.94871 -8.15825,4.17405 -5.81549,0.45068 -8.75133,-2.71753 -12.75355,-6.21675 l -0.0902,60.80765 -0.0162,16.87377 c -0.001,1.88033 0.0873,7.22138 -0.18044,8.77042 -0.43482,2.60262 -1.64022,5.00975 -3.45793,6.905 -2.36495,2.42654 -5.58624,3.80843 -8.95839,3.83976 -7.21464,0.0835 -12.89849,-5.4664 -12.76686,-12.75642 0.0547,-3.00705 0.006,-6.10811 0.0118,-9.1241 l 0.0947,-23.73102 0.247,-73.10249 C 192.23177,100.33496 172.20589,82.931717 151.97593,65.772175 l -1.17138,-0.991053 c -2.65779,2.177312 -5.43257,4.679792 -8.04244,6.948731 l -15.00017,13.074892 -38.197794,33.294165 -0.0053,76.24102 0.01613,21.25524 c 0.0021,2.12358 0.127936,8.75102 -0.14627,10.55673 -0.377003,2.51906 -1.510959,4.86201 -3.248951,6.71101 -2.316577,2.43697 -5.512145,3.82633 -8.859155,3.84871 -3.377482,0.0552 -6.636337,-1.25654 -9.04965,-3.64128 -4.485266,-4.44117 -3.680383,-9.9404 -3.680232,-15.73512 l 0.0076,-17.36773 -0.0038,-60.495 c -3.208725,2.6941 -5.68696,5.42507 -9.921524,6.10109 -3.11954,0.52083 -6.316139,-0.23728 -8.879116,-2.10567 -4.566464,-3.38281 -6.004059,-9.68596 -3.670772,-14.85883 1.300057,-2.88228 3.595046,-4.54309 5.916944,-6.59833 l 6.138354,-5.43029 23.210928,-20.472671 43.346818,-37.868452 c 4.84615,-4.202695 9.71433,-8.379432 14.60438,-12.53019 2.6047,-2.216554 5.29576,-4.576825 7.99202,-6.666533 1.65043,-1.279221 3.88329,-1.983003 5.93395,-2.279982 z"
         fill="#0a253e"
         id="path9"
         style="stroke-width:1.01421;fill:#132c43;fill-opacity:1" />
      <path
         d="m 139.39776,10.126773 c 2.51528,1.764475 4.23739,4.325635 4.83614,7.19214 0.7198,3.313628 -0.0338,6.755559 -2.09065,9.549324 -4.21783,5.822589 -10.67145,5.499999 -17.37743,6.755888 -31.714666,6.120012 -59.304461,24.046128 -76.280308,49.56196 -5.427429,8.28433 -9.704371,17.167335 -12.730308,26.439605 -1.269772,3.94505 -2.346322,7.94016 -3.228578,11.97552 -0.386696,1.87087 -0.725571,3.75119 -1.014385,5.63744 -0.531549,3.53564 -0.648891,6.25809 -2.877667,9.33675 -3.171763,4.38095 -8.741886,6.73821 -14.381754,5.66861 -2.023608,-0.38378 -3.350974,-1.08506 -5.0332129,-2.15686 -3.5772903,-2.8855 -5.1618232,-6.28681 -4.6136268,-10.69146 0.3519147,-2.82916 0.7157857,-5.65193 1.1763791,-8.46925 C 9.0649363,99.742003 17.912596,79.623837 31.549981,62.33374 54.570682,32.91738 89.373252,13.253027 128.18385,7.7328456 c 4.33719,-0.6496363 7.66278,0.032558 11.21391,2.3939214 z"
         fill="#1063b6"
         id="path11"
         style="stroke-width:0.942857;fill:#489d1e;fill-opacity:1" />
      <path
         d="m 288.44973,161.80211 c 7.11993,4.26592 5.66163,11.84788 4.85343,18.17017 -2.26493,18.76676 -9.32189,36.8905 -20.68254,53.10888 -21.87489,31.00939 -55.62543,51.77694 -96.90824,60.40398 -6.34932,1.3256 -10.0893,2.74211 -16.05231,-0.29268 -9.432,-6.04432 -6.40939,-17.52986 4.14313,-21.10279 2.18576,-0.73952 4.93303,-1.18645 7.24036,-1.72451 2.8694,-0.65196 5.71331,-1.38717 8.52448,-2.20259 15.92729,-4.691 29.74479,-11.01389 42.6453,-20.33547 23.29916,-16.79584 40.43015,-37.807 44.63171,-63.49559 0.36572,-2.31308 1.90959,-8.45451 2.35083,-10.84375 1.05287,-3.99053 1.24181,-4.93793 3.23298,-7.84526 2.08024,-2.72468 2.81967,-4.16691 6.1716,-5.17897 4.03559,-0.82813 6.53368,-0.64156 9.84928,1.33859 z"
         fill="#eba30e"
         id="path13"
         style="stroke-width:0.949819;fill:#1d847d;fill-opacity:1"
         sodipodi:nodetypes="sccccccccccccss" />
      <path
         d="m 139.7153,271.59902 c 1.94693,1.61141 3.39131,3.80724 4.14358,6.30127 1.05924,3.34869 0.79807,7.00767 -0.725,10.14866 -1.45217,3.05989 -4.01389,5.36294 -7.09864,6.38419 -3.54357,1.18259 -7.59835,0.24362 -11.26679,-0.37224 -15.33928,-2.60255 -30.178863,-7.81648 -43.945585,-15.4421 -35.645291,-19.64306 -62.249983,-53.75954 -73.7330263,-94.55109 -0.7348108,-2.54142 -1.932199,-7.0485 -2.3885294,-9.55146 -0.5741981,-3.22889 0.091526,-6.56804 1.8489494,-9.27684 4.3809993,-6.71894 14.2316103,-7.00154 19.0462473,-0.69839 2.282854,2.99152 2.680929,5.42033 3.658594,9.01344 0.527523,1.90576 1.081653,3.80386 1.664004,5.69168 1.015439,3.19745 2.145158,6.3531 3.386568,9.46039 4.758952,11.96139 11.150102,23.11677 18.967071,33.11222 17.078467,22.08357 40.493434,37.65911 66.687867,44.36209 2.71155,0.68421 5.44315,1.276 8.1907,1.77559 4.68375,0.85731 7.5846,0.66036 11.56399,3.64259 z"
         fill="#439c20"
         id="path15"
         style="stroke-width:1.01809;fill:#1464a8;fill-opacity:1" />
      <path
         d="m 154.72255,85.152763 c 0.93478,-0.07036 1.87393,0.01703 2.78096,0.258462 2.10034,0.554568 3.8954,1.953084 4.97477,3.878834 2.0682,3.75439 0.7449,7.04594 -0.3593,10.822141 -0.69962,2.39532 -1.42554,4.79198 -2.13685,7.18414 l -6.93633,23.64862 17.23496,-0.0254 c 4.82578,-0.006 11.52405,-1.03235 14.76363,3.38089 1.42992,1.96012 2.04337,4.41922 1.70597,6.84097 -0.20301,1.54478 -0.74197,3.02234 -1.57743,4.32659 -2.00831,3.0806 -5.76787,7.85986 -8.07122,10.97632 l -15.37125,20.90984 -16.80262,23.25092 -5.69162,7.8763 c -1.48804,2.05423 -2.47759,3.76335 -4.48094,5.32456 -3.7635,2.39038 -8.69386,1.5418 -10.98874,-2.54276 -0.52859,-0.93972 -1.2063,-3.19415 -1.01496,-4.32509 0.78696,-4.65526 2.58305,-9.19698 3.80249,-13.75663 3.15721,-11.02264 6.72967,-22.01688 9.80742,-33.04101 -5.17136,-0.11802 -10.47827,0.0613 -15.65825,-0.004 -1.76322,-0.0224 -5.45033,0.12849 -7.04442,-0.14193 -1.36536,-0.23754 -2.65345,-0.81272 -3.75211,-1.67475 -2.82244,-2.22306 -3.98595,-7.09943 -2.24784,-10.38022 1.3433,-2.5353 3.43442,-5.27079 5.08635,-7.67013 l 10.78879,-15.58213 16.58134,-23.98507 c 2.83705,-4.123111 5.68447,-8.346611 8.57644,-12.429821 1.32622,-1.873458 3.81214,-2.849488 6.03077,-3.119148 z"
         fill="#439c20"
         id="path17"
         style="stroke-width:1.00843;fill:#489d1e;fill-opacity:1" />
      <path
         d="m 246.66003,41.659854 c 2.5693,2.264407 5.05822,4.626716 7.46151,7.082018 18.05944,18.377751 30.95263,41.63524 37.26404,67.218108 0.41002,1.66369 0.78526,3.33751 1.15139,5.01028 1.47206,6.70803 3.11354,12.30386 -2.07093,17.81671 -2.27605,2.39879 -5.37279,3.73554 -8.59407,3.71274 -4.12605,-0.0348 -7.9636,-2.23282 -10.22962,-5.85891 -1.8844,-3.00992 -2.42619,-6.96009 -3.29015,-10.48699 -0.63162,-2.59803 -1.331,-5.17789 -2.09567,-7.73537 C 260.28429,98.480601 250.35225,82.58036 236.50201,67.860672 221.3236,52.803353 204.53719,42.270335 184.232,36.63697 c -4.33132,-1.234152 -8.72953,-2.191381 -13.17079,-2.86644 -4.42559,-0.690816 -8.6219,-0.465806 -12.30478,-3.507976 -2.57558,-2.104001 -4.25445,-5.195112 -4.66947,-8.597574 -0.38219,-3.340966 0.50768,-6.705418 2.47531,-9.358769 1.77067,-2.3503709 5.42844,-4.7359161 8.14066,-4.7996841 4.0709,-0.095795 10.36018,0.8836888 14.39796,1.5711121 25.83534,4.39868 47.4629,15.155072 67.55913,32.582209 z"
         fill="#0a253e"
         id="path19"
         style="stroke-width:1.04412;fill:#dbaa24;fill-opacity:1" />
    </g>
  </svg>
</svg>
