<?xml version="1.0" encoding="UTF-8" standalone="no"?>
<svg
   version="1.1"
   width="900"
   height="900"
   style="clip-rule:evenodd;fill-rule:evenodd;image-rendering:optimizeQuality;shape-rendering:geometricPrecision;text-rendering:geometricPrecision"
   id="svg1230"
   sodipodi:docname="Logo.svg"
   inkscape:version="1.2.2 (b0a8486541, 2022-12-01)"
   inkscape:export-filename="Logo.png"
   inkscape:export-xdpi="85.333336"
   inkscape:export-ydpi="85.333336"
   xmlns:inkscape="http://www.inkscape.org/namespaces/inkscape"
   xmlns:sodipodi="http://sodipodi.sourceforge.net/DTD/sodipodi-0.dtd"
   xmlns="http://www.w3.org/2000/svg"
   xmlns:svg="http://www.w3.org/2000/svg">
  <defs
     id="defs1234" />
  <sodipodi:namedview
     id="namedview1232"
     pagecolor="#ffffff"
     bordercolor="#000000"
     borderopacity="0.25"
     inkscape:showpageshadow="2"
     inkscape:pageopacity="1"
     inkscape:pagecheckerboard="0"
     inkscape:deskcolor="#d1d1d1"
     showgrid="false"
     inkscape:zoom="1"
     inkscape:cx="509"
     inkscape:cy="267"
     inkscape:window-width="1920"
     inkscape:window-height="1022"
     inkscape:window-x="0"
     inkscape:window-y="0"
     inkscape:window-maximized="1"
     inkscape:current-layer="svg1230"
     showguides="true" />
  <g
     id="g4"
     style="clip-rule:evenodd;mix-blend-mode:normal;fill:#ffffff;fill-opacity:1;fill-rule:evenodd;image-rendering:optimizeQuality;shape-rendering:geometricPrecision;text-rendering:geometricPrecision"
     transform="matrix(0.87890625,0,0,0.87890625,0.43945312,0.43945313)"
     inkscape:label="Hintergrund"
     sodipodi:insensitive="true">
    <path
       style="opacity:1;fill:#ffffff;fill-opacity:1"
       fill="#f9f9f9"
       d="m -0.5,-0.5 c 341.333,0 682.667,0 1024,0 0,341.333 0,682.667 0,1024 -341.333,0 -682.667,0 -1024,0 0,-341.333 0,-682.667 0,-1024 z"
       id="path2"
       inkscape:label="path2"
       sodipodi:insensitive="true" />
  </g>
  <g
     id="g3039"
     inkscape:label="Kreiselemente"
     style="clip-rule:evenodd;fill-rule:evenodd;image-rendering:optimizeQuality;shape-rendering:geometricPrecision;text-rendering:geometricPrecision"
     transform="matrix(1.0104498,0,0,0.97472609,-46.449887,-16.551088)">
    <path
       d="m 403.77193,182.01253 c 4.73757,1.68658 4.50135,10.57826 -0.36188,12.3241 -2.92266,1.04889 -5.78276,1.12681 -8.81398,1.62243 -9.32392,1.525 -18.1491,4.24143 -26.79507,7.98907 -25.95459,11.02758 -47.07382,30.93292 -59.53092,56.10904 -1.44173,2.90839 -2.97926,5.91768 -4.1369,8.94645 -2.05529,5.3209 -3.76926,10.76595 -5.13173,16.30221 -1.22863,5.19091 -0.90868,13.08176 -7.74323,13.7723 -2.00679,0.1897 -4.00337,-0.45301 -5.51748,-1.77594 -3.52491,-3.07999 -2.05591,-7.33813 -1.27708,-11.17138 2.41993,-11.60804 6.43612,-23.08316 11.84588,-33.65873 5.55007,-10.84952 12.52085,-20.33903 20.71352,-29.34563 10.56681,-11.52076 23.13473,-21.05702 37.1018,-28.15202 12.2382,-6.33124 25.63013,-10.84546 39.29382,-12.98533 1.43704,-0.22542 3.20741,-0.56687 4.62996,-0.63892 1.82529,-0.34951 4.1201,-0.38885 5.72328,0.66235 z"
       fill="#132c43"
       id="path17"
       style="mix-blend-mode:normal;fill:#489d1e;fill-opacity:1;stroke-width:0.99539" />
    <path
       d="m 575.35165,183.28993 c 3.28221,-3.69874 9.61556,-1.70987 13.90947,-0.8652 19.47843,3.89796 37.80053,11.95097 53.61438,23.5676 23.18946,16.89487 40.12487,40.51326 48.30793,67.371 1.64329,5.36837 2.88106,10.52834 3.79179,16.07202 0.50447,3.07348 0.53111,4.92918 -1.46773,7.48009 -4.0288,3.75562 -11.04582,2.6425 -12.42014,-2.95438 -0.61764,-2.51227 -0.86907,-5.10015 -1.38754,-7.64309 -8.48126,-39.56131 -37.65026,-72.07523 -77.08599,-85.92249 -4.04602,-1.44027 -8.17545,-2.65524 -12.36581,-3.64118 -2.83045,-0.6891 -5.68151,-1.23093 -8.5754,-1.60275 -1.75196,-0.22616 -3.62242,-0.51503 -5.10428,-1.51475 -1.60839,-1.10649 -2.67628,-2.79846 -2.95386,-4.68226 -0.32334,-2.19421 0.36065,-3.97246 1.7372,-5.66462 z"
       fill="#dbaa24"
       id="path11"
       style="mix-blend-mode:normal;stroke-width:0.987145" />
    <path
       d="m 580.85114,599.44886 c 2.19817,-2.65694 9.88509,-3.36821 13.58053,-4.42567 7.15545,-2.04691 13.79723,-4.18566 20.53778,-7.12919 15.39488,-6.68929 29.04233,-16.02359 40.10359,-27.43006 12.50305,-12.98645 21.34294,-28.29791 25.82768,-44.73125 1.08038,-3.93354 1.91821,-7.91296 2.50827,-11.92277 0.44144,-3.13037 0.066,-7.80025 2.83084,-10.01442 1.56171,-1.26338 3.65945,-1.91374 5.79775,-1.79653 2.07367,0.0815 4.01609,0.90205 5.36499,2.26475 2.27027,2.33579 1.78505,4.88849 1.4642,7.64964 -0.88782,5.49841 -1.64955,10.38823 -3.04786,15.81833 -3.5176,13.24323 -9.52438,25.9007 -17.78277,37.46944 -18.26542,25.21201 -46.56302,43.80764 -79.58526,52.29946 -2.65069,0.69024 -5.35236,1.43987 -8.05192,2.0007 -2.80151,0.58308 -5.13998,0.83903 -7.72952,-0.5774 -1.88289,-1.02997 -2.58198,-2.43742 -3.07865,-4.26134 -0.54487,-1.99713 0.0106,-3.54107 1.26033,-5.21369 z"
       fill="#5cab30"
       id="path13"
       style="mix-blend-mode:normal;fill:#1d847d;fill-opacity:1;stroke-width:0.983027" />
    <path
       d="m 284.50411,495.41726 c 1.01682,-1.29407 1.77266,-2.18771 3.33995,-2.87133 1.71579,-0.73989 3.65103,-0.7475 5.3725,-0.021 5.15599,2.1459 4.60908,7.64428 5.93357,12.32649 1.57081,5.55373 3.26827,11.20134 5.48498,16.52789 13.84949,33.17223 41.27343,58.48165 75.02339,69.23872 5.35637,1.69169 11.55213,3.04177 17.08947,4.02773 2.88835,0.61635 6.3571,0.18519 9.0754,1.41027 4.53138,2.04152 5.33146,6.31034 3.46725,10.5299 -0.84232,1.43904 -2.17602,2.51038 -3.74489,3.00924 -2.8512,0.92165 -7.69723,-0.10277 -10.70567,-0.55903 -14.74691,-2.23582 -28.75378,-7.02085 -41.97032,-14.11324 -31.42601,-16.92811 -55.06014,-45.77924 -65.79861,-80.32293 -1.38959,-4.61114 -2.78136,-9.93404 -3.52348,-14.71354 -0.23686,-1.52467 0.25551,-3.11524 0.95647,-4.46911 z"
       fill="#2173b4"
       id="path15"
       style="mix-blend-mode:normal;fill:#1464a8;fill-opacity:1;stroke-width:1.00973" />
  </g>
  <g
     id="g3058"
     inkscape:label="Beschriftung"
     transform="translate(-58.69884,-21.045576)">
    <text
       xml:space="preserve"
       style="font-style:normal;font-variant:normal;font-weight:600;font-stretch:normal;font-size:26.6667px;font-family:Inter;-inkscape-font-specification:'Inter, Semi-Bold';font-variant-ligatures:normal;font-variant-caps:normal;font-variant-numeric:normal;font-variant-east-asian:normal;fill:#4e9d26;fill-opacity:1"
       x="178.51897"
       y="885.86725"
       id="text2309"
       inkscape:label="Info-WIGGAL"><tspan
         sodipodi:role="line"
         id="tspan2307"
         x="178.51897"
         y="885.86725"><tspan
   style="font-style:normal;font-variant:normal;font-weight:800;font-stretch:normal;font-size:26.6667px;font-family:Inter;-inkscape-font-specification:'Inter, Ultra-Bold';font-variant-ligatures:normal;font-variant-caps:normal;font-variant-numeric:normal;font-variant-east-asian:normal;fill:#4e9d26;fill-opacity:1"
   id="tspan13321">W</tspan><tspan
   style="fill:#000000"
   id="tspan15163">eather - </tspan><tspan
   style="font-style:normal;font-variant:normal;font-weight:800;font-stretch:normal;font-size:26.6667px;font-family:Inter;-inkscape-font-specification:'Inter, Ultra-Bold';font-variant-ligatures:normal;font-variant-caps:normal;font-variant-numeric:normal;font-variant-east-asian:normal"
   id="tspan15149">I</tspan><tspan
   style="fill:#000000"
   id="tspan15267">nverter - </tspan><tspan
   style="font-style:normal;font-variant:normal;font-weight:800;font-stretch:normal;font-size:26.6667px;font-family:Inter;-inkscape-font-specification:'Inter, Ultra-Bold';font-variant-ligatures:normal;font-variant-caps:normal;font-variant-numeric:normal;font-variant-east-asian:normal"
   id="tspan15155">G</tspan><tspan
   style="fill:#000000"
   id="tspan15269">rid - </tspan><tspan
   style="font-style:normal;font-variant:normal;font-weight:800;font-stretch:normal;font-size:26.6667px;font-family:Inter;-inkscape-font-specification:'Inter, Ultra-Bold';font-variant-ligatures:normal;font-variant-caps:normal;font-variant-numeric:normal;font-variant-east-asian:normal"
   id="tspan15157">G</tspan><tspan
   style="fill:#000000"
   id="tspan15271">reen - </tspan><tspan
   style="font-style:normal;font-variant:normal;font-weight:800;font-stretch:normal;font-size:26.6667px;font-family:Inter;-inkscape-font-specification:'Inter, Ultra-Bold';font-variant-ligatures:normal;font-variant-caps:normal;font-variant-numeric:normal;font-variant-east-asian:normal"
   id="tspan15159">A</tspan><tspan
   style="fill:#000000"
   id="tspan15273">kku -</tspan> <tspan
   style="font-style:normal;font-variant:normal;font-weight:800;font-stretch:normal;font-size:26.6667px;font-family:Inter;-inkscape-font-specification:'Inter, Ultra-Bold';font-variant-ligatures:normal;font-variant-caps:normal;font-variant-numeric:normal;font-variant-east-asian:normal"
   id="tspan15161">L</tspan><tspan
   style="fill:#000000"
   id="tspan15275">oader</tspan></tspan></text>
    <text
       xml:space="preserve"
       style="font-style:normal;font-variant:normal;font-weight:600;font-stretch:normal;font-size:100px;font-family:Inter;-inkscape-font-specification:'Inter, Semi-Bold';font-variant-ligatures:no-common-ligatures;font-variant-caps:normal;font-variant-numeric:normal;font-variant-east-asian:normal;fill:#4e9d26;fill-opacity:1"
       x="136.11835"
       y="814.63489"
       id="text2764"
       inkscape:label="EnergyWIGGAL"><tspan
         sodipodi:role="line"
         id="tspan3619"
         x="136.11835"
         y="814.63489"><tspan
   style="fill:#000000"
   id="tspan16972">Energy</tspan>WIGGAL</tspan></text>
  </g>
  <g
     id="g12241"
     transform="translate(-64.139557,103.11864)"
     inkscape:label="Balken">
    <path
       style="opacity:0.657318;fill:#1464a8;fill-opacity:1"
       d="m 505.99999,721.99999 v -4 h 86.5 86.5 v 4 4 h -86.5 -86.5 z"
       id="path8467" />
    <path
       style="opacity:0.657318;fill:#4a9c1d;fill-opacity:1"
       d="m 157,722.49999 v -4.5 h 86.5 86.5 v 4.5 4.5 H 243.5 157 Z"
       id="path8469" />
    <path
       style="opacity:0.657318;fill:#1d847d;fill-opacity:1"
       d="m 332,721.99999 v -4 h 86.49999 86.5 v 4 4 h -86.5 H 332 Z"
       id="path9920" />
    <path
       style="opacity:0.657318;fill:#dbaa24;fill-opacity:1"
       d="m 679.99999,721.49999 v -4.5 h 86.5 86.5 v 4.5 4.5 h -86.5 -86.5 z"
       id="path11509" />
  </g>
  <g
     id="g3135"
     inkscape:label="Haus"
     transform="matrix(1.0001331,0,0,1.0076661,-49.56853,-23.427522)">
    <path
       d="m 498.37247,310.73646 c 2.08039,-0.11407 3.74266,0.13222 5.48416,1.40954 2.46781,1.81116 4.75405,3.82948 7.0964,5.79647 l 11.21988,9.39123 35.90133,30.10518 27.14429,22.79979 c 3.17927,2.69165 6.40972,5.32106 9.58239,8.02081 1.79432,1.52674 3.76527,3.16557 4.4272,5.52856 0.63882,2.28013 0.0775,4.87439 -1.40145,6.71575 -1.34698,1.64263 -3.28326,2.69231 -5.39287,2.92391 -1.22482,0.12231 -2.45956,-0.0625 -3.59525,-0.53796 -2.63453,-1.11407 -7.7831,-5.99836 -10.37967,-8.10484 l -10e-4,60.30197 -0.005,17.1509 c 0.0198,4.23573 0.91945,11.36845 -2.09806,14.57413 -1.46088,1.56653 -3.49455,2.47608 -5.63717,2.52064 -2.28954,0.0281 -4.33972,-0.97886 -5.91121,-2.60317 -1.80092,-1.8587 -2.12281,-4.21922 -2.14923,-6.68208 -0.0264,-2.62793 -0.008,-5.24926 -0.003,-7.87224 l 0.0264,-18.2057 -0.0149,-48.50862 c -0.005,-7.77519 0.17002,-16.08817 -0.0101,-23.79286 -2.44636,-2.44949 -6.53682,-5.68257 -9.20767,-7.90162 l -12.93663,-10.83561 -40.17005,-33.84486 c -0.38892,-0.36926 -0.36679,-0.40773 -0.86811,-0.5548 -1.21377,0.69033 -5.75191,4.72302 -7.11969,5.89304 l -12.71972,10.71015 -33.18508,27.83825 c -3.37323,2.86482 -6.98383,5.67564 -10.27419,8.6106 l 5e-4,70.5656 0.003,19.89108 c 8.2e-4,3.69264 0.15269,7.6692 -0.20139,11.31067 -0.31661,3.2585 -4.52575,6.06306 -7.6692,5.99043 -3.75651,-0.0859 -7.35457,-3.0274 -7.70981,-6.83724 -0.29184,-3.1281 -0.15418,-6.40311 -0.14823,-9.54606 l 0.0224,-17.36879 0.0516,-60.83516 c -4.65963,3.63141 -10.13289,10.95677 -16.5748,7.93563 -1.89485,-0.91135 -3.34286,-2.5477 -4.01701,-4.53945 -2.1276,-6.22681 4.39222,-9.99242 8.4665,-13.4358 l 10.79153,-9.11903 25.22699,-21.15155 35.25357,-29.56275 c 4.75686,-3.95098 9.44636,-8.07611 14.30391,-11.92144 1.52063,-1.20386 2.54557,-1.74299 4.39833,-2.22268 z"
       fill="#132c43"
       id="path9"
       style="clip-rule:evenodd;mix-blend-mode:normal;fill-rule:evenodd;stroke-width:1.12689;image-rendering:optimizeQuality;shape-rendering:geometricPrecision;text-rendering:geometricPrecision" />
    <path
       d="m 510.44834,357.59743 c 2.11786,-0.018 3.98978,1.18521 3.54243,3.50611 -0.75107,3.8521 -1.89007,7.62778 -2.77981,11.4566 -1.03334,4.1517 -1.85209,8.40657 -3.07527,12.50644 -1.78276,5.97326 -2.97292,12.07165 -4.5477,18.08783 l 16.26281,-0.0363 c 2.47111,-0.0132 4.95048,-0.0462 7.41829,-0.0101 1.57974,0.0214 3.13305,0.1271 4.08552,1.57477 1.09607,1.67052 0.19313,3.30143 -0.82866,4.70618 -1.85869,2.55365 -3.76692,5.05614 -5.61572,7.61143 l -19.0195,26.1126 c -4.0789,5.6933 -8.19973,11.35524 -12.36035,16.98912 -1.71228,2.34565 -4.97145,7.59987 -7.27601,8.92375 -2.03286,0.43743 -3.14906,-0.72632 -3.94635,-2.4249 0.16506,-2.48102 2.36662,-9.73424 3.0591,-12.50084 2.75949,-11.03006 5.90129,-21.84551 8.59261,-32.91518 -3.45742,0.0132 -24.44868,0.28228 -25.82604,-0.29878 -0.82883,-0.34995 -1.44322,-1.04985 -1.75635,-1.88677 -0.26643,-0.71146 -0.2146,-1.57477 0.10468,-2.26312 1.06157,-2.28458 3.31843,-4.81183 4.84121,-6.89172 l 9.17366,-12.61474 c 6.72087,-9.27782 13.49241,-18.51867 20.31464,-27.72221 2.56191,-3.44173 5.10565,-6.90129 7.65435,-10.35259 0.55464,-0.74926 1.12744,-1.20552 1.98251,-1.55778 z"
       fill="#5cab30"
       id="path21"
       style="clip-rule:evenodd;mix-blend-mode:normal;fill:#4d9e1c;fill-opacity:1;fill-rule:evenodd;stroke-width:1.12689;image-rendering:optimizeQuality;shape-rendering:geometricPrecision;text-rendering:geometricPrecision" />
  </g>
  <g
     id="g3141"
     inkscape:label="Akku"
     transform="matrix(0.95050467,0,0,0.99113553,-32.864931,-21.625159)">
    <path
       class="cls-1"
       d="m 330.22453,323.97948 h -14.5406 V 309.0818 a 4.6455153,4.773762 0 0 0 -4.63114,-4.75898 h -37.39424 a 4.6598977,4.7885414 0 0 0 -4.63112,4.75898 v 14.89768 h -14.555 a 14.684431,15.089817 0 0 0 -10.41286,4.43384 l -0.25888,0.29559 a 14.655666,15.060258 0 0 0 -4.07022,10.34562 v 131.72922 a 14.785108,15.193273 0 0 0 14.74196,15.14894 h 75.7521 a 14.655666,15.060258 0 0 0 10.39848,-4.43383 v 0 a 14.684431,15.089817 0 0 0 4.31472,-10.70033 V 339.12842 a 14.785108,15.193273 0 0 0 -14.74196,-15.14894 z m -75.7521,8.86768 h 75.7521 a 6.0837554,6.2517069 0 0 1 6.05499,6.22215 v 131.71444 a 6.0262258,6.192589 0 0 1 -1.78341,4.43384 v 0 a 6.0549906,6.222148 0 0 1 -4.31472,1.81787 h -75.70896 a 6.0837554,6.2517069 0 0 1 -6.11252,-6.25171 V 339.12842 a 6.0406082,6.2073685 0 0 1 1.61084,-4.22691 l 0.17259,-0.16258 a 6.0549906,6.222148 0 0 1 4.31472,-1.83265 z"
       id="path450-3"
       style="fill:#131313;stroke-width:1.45796" />
    <path
       class="cls-2"
       d="m 324.84999,379.71091 v -30.03185 a 3.7825713,3.886995 0 0 0 -3.73941,-3.84265 h -61.78681 a 3.8257185,3.9313333 0 0 0 -3.7538,3.84265 v 30.03185 z"
       id="path456"
       style="fill:#4d9e1c;fill-opacity:1;fill-rule:evenodd;stroke-width:1.45796" />
    <path
       style="opacity:0.657318;fill:#4d9e1c;fill-opacity:1;stroke-width:0.707107"
       d="m 254.91904,408.70244 v -16.61701 h 34.64823 34.64823 v 16.61701 16.61701 h -34.64823 -34.64823 z"
       id="path2049" />
    <path
       style="opacity:0.657318;fill:#1d847d;fill-opacity:1;stroke-width:0.707107"
       d="m 257.45678,466.36138 c -1.3285,-1.3285 -1.41421,-2.35702 -1.41421,-16.97056 v -15.55635 h 34.29467 34.29468 v 15.85939 c 0,13.47482 -0.16707,16.02647 -1.11117,16.97056 -0.97717,0.97718 -4.94209,1.11117 -32.88046,1.11117 -30.82649,0 -31.81127,-0.042 -33.18351,-1.41421 z"
       id="path2051" />
  </g>
  <g
     id="g3147"
     inkscape:label="DynPrice"
     transform="matrix(1.0346314,0,0,1.0346876,-61.18006,-44.305266)">
    <path
       d="m 438.04389,625.07445 c 1.6563,-1.61941 3.25801,-3.08898 5.09996,-4.47898 7.26673,-5.48465 16.9313,-6.06368 24.49863,-0.76526 3.97967,2.78676 6.67661,6.87464 11.77073,7.5561 3.09878,0.41395 6.47124,-0.077 9.06287,-1.95972 2.25498,-1.63717 3.8621,-4.52299 5.39227,-6.80268 1.7104,-2.54805 3.35485,-4.9869 4.97934,-7.59927 3.59603,-5.78517 6.78826,-12.6075 12.34484,-16.78664 4.03453,-3.0347 8.77505,-4.05122 13.7306,-3.29688 7.0964,1.08008 11.28923,5.89962 15.28397,11.31232 1.73029,2.33776 3.40218,4.71802 5.01395,7.13909 2.43291,3.60112 4.64318,6.74767 7.18698,10.25313 1.79209,2.47524 5.36865,7.01095 7.57722,9.04853 -1.53473,3.35478 -3.32259,6.58767 -5.34917,9.66988 -0.91848,-1.0861 -2.09091,-2.28817 -3.06018,-3.36579 -1.44501,-1.61857 -2.82315,-3.29554 -4.13188,-5.02669 -3.98543,-4.89801 -7.45701,-10.07198 -10.96162,-15.31452 -2.52687,-3.77974 -4.95808,-7.85069 -8.16725,-11.08587 -3.1042,-3.12952 -8.26122,-3.68526 -11.65323,-0.68754 -2.74528,2.45569 -4.50266,5.83841 -6.4539,8.913 -5.00803,7.89048 -10.82956,19.48113 -19.39146,23.89999 -6.80224,3.51139 -16.36863,2.23737 -22.32798,-2.18149 -4.02047,-2.98232 -8.22337,-7.90402 -13.6236,-7.08628 -2.75695,0.42326 -4.8074,1.65411 -6.92184,3.42589 -1.36036,1.21562 -3.33259,2.99078 -4.55056,4.2885 l -4.71777,4.90054 c -0.7181,0.75849 -1.97214,2.17897 -2.70235,2.84603 -2.06695,-2.77068 -3.93311,-5.68527 -5.58408,-8.72177 0.61228,-0.84822 1.94302,-2.18827 2.67687,-2.97723 1.60475,-1.72522 3.26733,-3.50208 4.97866,-5.11641 z"
       fill="#076db0"
       id="path13-7"
       style="mix-blend-mode:normal;stroke-width:0.577892" />
    <path
       d="m 547.44401,629.97161 c 1.30874,1.73114 2.68687,3.40812 4.13189,5.02667 0.96926,1.07764 2.14169,2.27971 3.06017,3.3658 -12.98651,19.75202 -34.787,31.93015 -58.41481,32.63277 -23.62755,0.70177 -46.11323,-10.16171 -60.24881,-29.10698 0.73021,-0.66706 1.98425,-2.08754 2.70235,-2.84603 l 4.71776,-4.90054 c 0.36942,0.65944 1.51316,2.10954 2.02183,2.77322 4.89198,6.27953 10.95165,11.55509 17.84555,15.53461 14.25638,8.2147 31.20105,10.39959 47.07505,6.07214 15.38978,-4.29866 29.23212,-14.56873 37.10902,-28.55166 z"
       fill="#2a333c"
       id="path15-5"
       style="mix-blend-mode:normal;stroke-width:0.577892" />
    <path
       d="m 430.38837,633.16809 c -16.28169,-29.94394 -9.50146,-67.18673 16.2887,-89.47155 25.79025,-22.2849 63.62237,-23.59094 90.88802,-3.13766 27.26566,20.45328 36.59772,57.13981 22.42016,88.13531 -2.20858,-2.03758 -5.78513,-6.57328 -7.57723,-9.04853 5.54304,-15.40484 4.76592,-32.37745 -2.16286,-47.21081 -7.06932,-15.03812 -19.81033,-26.6617 -35.43291,-32.32513 -15.44227,-5.51021 -32.44332,-4.63922 -47.24139,2.42022 -14.89676,7.13622 -26.37029,19.86977 -31.92136,35.42698 -5.58172,15.80906 -4.6061,31.96215 2.39439,47.11753 -1.71133,1.61433 -3.3739,3.39118 -4.97866,5.1164 -0.73385,0.78896 -2.06458,2.12902 -2.67687,2.97724 z"
       fill="#2a333c"
       id="path17-3"
       style="mix-blend-mode:normal;stroke-width:0.577892" />
    <path
       d="m 479.65024,556.60328 c 3.10844,-0.23254 6.68592,0.36672 9.54234,1.54246 1.03488,0.41023 3.77007,1.68002 4.08498,2.818 0.50605,1.82866 -0.86988,6.37155 -3.35587,6.10981 -1.10581,-0.11648 -2.10895,-0.62169 -3.07965,-1.05147 -2.80428,-1.24178 -6.16523,-1.52637 -9.05237,-0.41472 -3.10065,1.24635 -4.78506,3.58031 -6.06094,6.55026 l 8.62912,0.006 c 0.9911,-4.2e-4 2.07457,0.008 3.05958,-0.002 1.8709,-0.0197 3.09378,0.24889 3.19596,2.39745 0.0776,1.63287 -0.0947,3.3597 -2.11631,3.54051 -1.49241,0.11047 -3.15076,0.0517 -4.65494,0.0519 l -9.8344,0.004 0.0132,4.50005 c 4.63014,0.0955 9.30058,-0.0962 13.93232,0.0289 1.42826,0.0386 1.67849,1.09837 1.68679,2.31254 0.0106,1.54872 -0.0303,3.48989 -2.0309,3.60071 -1.37466,0.0761 -2.73071,0.0416 -4.10131,0.0384 l -8.00354,-0.006 c 0.53644,1.4694 1.38017,2.80742 2.47472,3.92483 2.07331,2.10735 4.42105,2.82385 7.29897,2.85914 1.93592,-0.10632 3.63142,-0.49775 5.37534,-1.36121 1.72725,-0.85525 3.91289,-2.35022 5.32953,-0.0943 0.65775,1.01737 1.38154,3.7988 0.6746,4.87998 -1.3811,2.11252 -5.06618,3.79439 -7.34858,4.45662 -4.81544,1.41777 -9.99608,0.87354 -14.4118,-1.51392 -3.58874,-1.98629 -6.58984,-5.27285 -8.35949,-8.97886 -0.63617,-1.33209 -1.06104,-2.74283 -1.46551,-4.15848 -1.52035,-0.0177 -5.52719,0.33354 -6.55589,-0.58283 -0.66791,-0.5951 -0.95378,-1.58681 -0.98815,-2.45907 -0.0315,-0.80141 0.18048,-1.65912 0.75426,-2.24635 1.04554,-1.07018 4.25022,-0.70728 5.75009,-0.69289 -0.13232,-1.75646 -0.14755,-2.76898 -0.074,-4.52596 -1.24862,0.007 -3.75967,0.29223 -4.69507,-0.56598 -1.08,-1.00347 -0.79201,-3.95565 0.25244,-4.86956 0.98324,-0.86033 4.36034,-0.54262 5.68853,-0.54102 0.79278,-3.23585 2.33015,-6.24186 4.48971,-8.77865 3.72326,-4.32127 8.31886,-6.36851 13.95628,-6.77865 z"
       fill="#2a333c"
       id="path19"
       style="mix-blend-mode:normal;stroke-width:0.577892" />
  </g>
  <g
     clip-path="none"
     fill="none"
     fill-rule="nonzero"
     stroke="none"
     stroke-width="1"
     stroke-linecap="butt"
     stroke-linejoin="miter"
     stroke-miterlimit="10"
     stroke-dasharray="none"
     stroke-dashoffset="0"
     font-family="none"
     font-weight="none"
     font-size="none"
     text-anchor="none"
     style="mix-blend-mode:normal"
     id="g1026"
     transform="matrix(0.82308057,0,0,0.82308057,356.01923,19.46976)"
     inkscape:label="PV">
    <path
       d="m 96.318007,85.383217 27.240533,-0.07156 -0.005,12.200869 c -17.10472,-0.02152 -34.20929,0.135085 -51.310889,0.469685 L 61.924769,98.16836 c -2.007716,0.03563 -4.251467,-0.01974 -6.222178,0.292139 -4.354765,0.689376 -7.526571,4.923781 -7.591676,9.205691 -0.156808,10.31946 -0.246584,20.61814 -0.360878,30.92812 -0.254455,25.71399 -0.224287,51.43035 0.09052,77.14256 0.06569,10.41938 0.229633,20.83579 0.491524,31.2507 0.07758,2.9897 0.179247,5.9779 0.304841,8.9661 0.166172,3.90115 -0.0709,6.73349 2.821338,9.75879 1.189653,1.24694 2.705399,2.13613 4.375134,2.56514 1.643867,0.41269 5.230954,0.36963 7.054666,0.40526 l 10.076208,0.18259 c 23.128025,0.39337 46.260512,0.42901 69.389582,0.11133 7.03907,-0.0178 14.07768,-0.11579 21.11437,-0.29244 2.824,-0.0668 5.93338,0.0994 8.67416,-0.23603 4.18251,-0.51065 7.58469,-4.42218 7.76454,-8.58014 0.0966,-2.19402 0.14565,-4.32421 0.20956,-6.50488 0.17093,-5.5949 0.2928,-11.19129 0.36564,-16.78767 0.21106,-16.05733 0.3151,-32.11763 0.3151,-48.17644 -0.0699,-7.01404 -0.10104,-14.0266 -0.0952,-21.04093 4.13197,0.0185 8.26245,0.0121 12.39443,-0.0195 l 0.009,7.54592 c 0.1085,19.87831 0.0327,39.75513 -0.22741,59.63196 -0.0402,5.97937 -0.14714,11.95727 -0.32253,17.93219 -0.0802,3.11141 -0.0966,8.14222 -0.68223,11.01167 -0.84274,4.03325 -2.81211,7.74587 -5.68071,10.70587 -6.23809,6.4633 -12.06892,6.5776 -20.18126,6.72457 l -10.64146,0.20039 c -0.0141,3.19603 -0.0105,9.71574 -4.07548,10.20711 -4.61027,0.55815 -10.13076,0.37111 -14.80865,0.42455 -9.96177,0.11133 -19.92397,0.15141 -29.88618,0.11876 -6.10744,-0.0104 -12.214877,-0.0564 -18.321716,-0.13805 -3.27407,-0.0312 -6.509491,-0.0594 -9.782658,-0.16923 -5.957761,-0.20188 -5.476492,-6.02539 -5.567455,-10.4357 l -10.50635,-0.17219 c -7.690368,-0.14696 -13.307023,-0.38002 -19.341331,-6.22282 -2.693653,-2.63491 -4.659911,-5.92001 -5.708216,-9.53761 -1.066138,-3.64136 -1.115925,-8.33372 -1.262924,-12.17103 -0.158735,-4.56766 -0.282544,-9.1368 -0.371285,-13.70595 -0.523336,-32.53772 -0.657249,-65.07841 -0.401749,-97.6194 0.0269,-8.24806 0.106128,-16.49583 0.237515,-24.74286 0.14358,-9.58764 -0.78121,-16.95838 6.46727,-24.469125 7.324734,-7.589707 15.541857,-6.537822 25.017583,-6.716553 z"
       fill="#313740"
       id="path998"
       style="stroke-width:1.0139" />
    <path
       d="m 214.22867,59.294432 c 4.4,-0.57319 10.67546,0.86411 14.55531,2.88896 7.22198,3.76904 11.99121,9.34688 14.54505,17.01636 5.18828,0.29224 10.08205,2.50225 13.73187,6.20054 4.16996,4.14258 6.50549,9.78369 6.48205,15.660788 -0.0308,5.68828 -2.32234,11.13076 -6.36923,15.12891 -7.14725,7.07095 -15.04908,6.22749 -24.22271,6.43345 -9.23077,0.19644 -18.46447,0.2707 -27.6967,0.22295 -7.75824,0.0195 -15.51502,-0.0543 -23.27033,-0.22148 -3.4989,-0.0722 -9.43883,-0.0608 -12.70037,-0.67441 -2.15385,-0.40005 -4.20952,-1.22007 -6.04835,-2.41318 -3.74945,-2.41011 -6.42286,-6.45322 -7.3578,-10.79458 -1.03414,-4.61499 -0.13333,-9.452048 2.4926,-13.385888 2.79092,-4.22007 6.53407,-6.20288 11.32821,-7.19312 2.1685,-6.89312 7.67766,-12.42729 14.84542,-13.79868 2.30769,-0.4415 4.33407,-0.36987 6.65201,-0.29546 0.83516,-1.27295 1.74652,-2.49316 2.73114,-3.65405 5.35678,-6.29429 11.91941,-10.44727 20.30183,-11.12109 z"
       fill="#313740"
       id="path1000" />
    <path
       d="m 215.31731,66.475972 c 9.64396,-0.74985 19.84908,7.05527 21.43736,16.5791 0.21099,1.26504 0.27985,2.41582 0.30916,3.69419 5.42564,-1.01353 10.54799,-0.38496 14.69744,3.56191 2.85128,2.76182 4.47473,6.5502 4.51136,10.518158 0.0601,3.86938 -1.24249,7.1105 -3.90476,9.9186 -4.93333,5.20547 -12.33407,4.28716 -18.91868,4.47876 -10.26813,0.26294 -20.54066,0.39346 -30.81172,0.39185 -9.66886,-0.29839 -19.48425,-0.10049 -29.17656,-0.59282 -3.32161,-0.16875 -6.08938,-0.86147 -8.36923,-3.44048 -1.80806,-2.04463 -2.59927,-4.61982 -2.38388,-7.33447 0.22271,-2.64111 1.48718,-5.084908 3.51648,-6.790278 3.15165,-2.62104 6.28278,-2.49331 10.05861,-2.12798 0.0234,-0.71631 0.0513,-1.42632 0.10696,-2.1416 0.64762,-8.3499 7.76557,-13.90576 15.99853,-11.46519 0.91136,0.26982 1.70403,0.62021 2.57436,0.99243 3.76703,-8.69165 10.53626,-15.57217 20.35458,-16.24219 z"
       fill="#ffffff"
       id="path1002"
       style="fill:#ffffff;fill-opacity:1" />
    <path
       d="m 96.780896,153.91806 c 10.500514,-0.60923 16.205574,6.46245 21.508574,14.41772 1.60762,2.4126 3.23883,4.90283 5.63385,6.57861 4.34872,3.04102 8.18125,0.2666 11.3874,-2.87109 2.3452,-2.27051 4.28454,-4.55903 6.263,-7.15415 0.95722,-1.25566 2.24103,-3.4147 3.36908,-4.42251 0.73348,-0.66357 1.63912,-1.10713 2.61319,-1.27969 1.39033,-0.23672 2.81729,0.096 3.95941,0.92314 4.19282,3.0208 2.1156,7.17217 -0.40073,10.34971 -5.71238,7.21289 -11.7556,15.24463 -21.48674,16.67285 -9.23912,1.10596 -15.57289,-5.13135 -20.25216,-12.24609 -2.01011,-3.05566 -7.28703,-11.34902 -11.888064,-9.98877 -4.43692,1.31177 -9.47341,8.23096 -12.45275,11.6792 -1.22535,1.41943 -2.33817,3.38965 -3.7537,4.68018 -3.32322,2.76855 -8.18842,0.45996 -8.77744,-3.58008 -0.45421,-3.11572 3.183,-7.14111 5.04615,-9.29443 5.09421,-5.88765 10.91516,-13.61382 19.23092,-14.4646 z"
       fill="#313740"
       id="path1004" />
    <path
       d="m 176.32097,45.088672 c 7.91941,-0.38364 15.6044,3.86777 20.10549,10.25918 2.9641,4.21055 -1.7978,8.25923 -5.13846,4.57251 -0.54652,-0.6041 -1.06081,-1.28804 -1.59707,-1.91133 -0.72527,-0.8521 -1.52381,-1.63755 -2.38828,-2.34683 -1.5707,-1.27207 -4.01905,-2.31797 -5.96337,-2.80034 -4.49231,-1.10303 -9.2381,-0.40356 -13.22198,1.94868 -4.15678,2.50767 -6.51136,6.43198 -7.66388,11.04346 -0.83048,3.81958 -0.38505,8.27827 1.54227,11.72827 1.1663,2.08667 3.61172,4.70581 1.08132,6.91904 -1.2,1.04912 -3.44762,0.81226 -4.4781,-0.30469 -3.29348,-3.56924 -5.27678,-9.14619 -5.52425,-13.84673 -0.38828,-6.33955 1.76938,-12.57202 5.99443,-17.31519 4.64527,-5.11274 10.41963,-7.63418 17.25187,-7.94604 z"
       fill="#313740"
       id="path1006" />
    <path
       d="m 97.951006,237.99204 c 9.858464,-0.41455 20.391064,0.22119 30.301984,0.0601 5.87487,-0.0967 7.52967,10.16016 0.48718,11.5957 -9.97099,0.30762 -20.58359,-0.10693 -30.598104,-0.0454 -5.857,0.0352 -7.36381,-10.45605 -0.19106,-11.61035 z"
       fill="#313740"
       id="path1008" />
    <path
       d="m 212.08068,129.32993 c 0.97436,0.26777 1.50183,0.9375 2.04103,1.74199 0.70037,1.04473 0.12308,3.29312 -0.2315,4.42881 -1.20293,3.86118 -5.22637,16.89771 -7.31429,20.00713 -0.55678,0.81826 -1.30256,1.48975 -2.17436,1.95732 -1.28059,0.68657 -2.35751,0.74795 -3.72015,0.36064 -1.93114,-1.02041 -3.44469,-3.96563 -2.86593,-5.92881 1.88571,-6.39683 9.19853,-18.52778 14.2652,-22.56709 z"
       fill="#377092"
       id="path1010" />
    <path
       d="m 232.362,128.36855 c 1.5619,0.47461 2.7619,1.72822 2.5304,3.61245 -0.51868,4.22051 -2.02051,9.99961 -4.69011,13.40156 -0.76337,0.97266 -2.68425,1.0752 -3.80952,0.97354 -4.18462,-1.96479 -2.99341,-6.10078 -1.01245,-9.20142 1.76117,-2.75889 4.05861,-7.23164 6.98168,-8.78613 z"
       fill="#377092"
       id="path1012" />
    <path
       d="m 189.60156,128.52661 c 4.75018,0.23672 1.67179,8.19199 1.01245,10.81875 -0.8293,3.29429 -2.55238,7.39292 -6.77216,6.48281 -4.64469,-2.10659 -2.52308,-6.69346 -0.52894,-9.81914 1.62344,-2.54136 3.4989,-6.15674 6.28864,-7.48242 z"
       fill="#377092"
       id="path1014" />
    <path
       d="m 150.01328,85.334522 c 0.57934,-0.02856 1.19194,-0.06284 1.74535,0.12539 0.80982,0.27905 1.46505,0.88564 1.80542,1.67153 0.31429,0.73271 0.2274,1.98794 -0.11004,2.4627 -1.10828,1.55903 -9.73641,8.28267 -10.92601,8.74395 -0.65319,0.05273 -1.32425,0.05874 -1.94315,-0.18794 -0.69729,-0.27803 -1.35414,-0.92241 -1.63414,-1.62085 -0.33275,-0.83027 -0.21641,-1.72397 0.12308,-2.52993 0.46667,-1.1083 9.61861,-8.13091 10.93949,-8.66484 z"
       fill="#313740"
       id="path1016" />
    <path
       d="m 147.29006,36.405662 c 2.72176,0.10767 7.11897,6.2915 9.3748,8.30581 2.06286,1.84204 1.29289,4.50996 -1.60044,5.41655 -1.77172,-0.04028 -2.32234,-0.67837 -3.44923,-1.89683 -2.05348,-2.22056 -4.24454,-4.36655 -6.20088,-6.67031 -1.79341,-2.11172 -0.79399,-4.53706 1.87575,-5.15522 z"
       fill="#313740"
       id="path1018" />
    <path
       d="m 205.4316,35.811472 c 3.9956,0.04846 4.2022,3.97255 1.48278,6.2725 -2.15971,1.82666 -5.21465,6.68306 -7.81538,7.51392 -2.2652,0.005 -3.00513,-0.90469 -3.5663,-2.96104 0.60952,-2.80342 4.31648,-5.43853 6.09817,-7.74595 0.87473,-1.13276 2.41026,-2.67817 3.80073,-3.07944 z"
       fill="#313740"
       id="path1020" />
    <path
       d="m 135.44771,65.452632 c 2.45641,0.05991 10.34916,-0.27861 12.07136,0.80903 0.64176,0.40532 1.10066,1.00854 1.23165,1.76528 0.13773,0.79629 -0.0601,1.71592 -0.56322,2.35444 -0.61407,0.77944 -1.43516,1.07783 -2.39106,1.17598 -2.5537,-0.02153 -10.47897,0.33442 -12.32073,-0.81694 -0.64425,-0.40269 -1.14139,-0.98833 -1.27575,-1.75107 -0.13421,-0.76172 0.11678,-1.80952 0.6041,-2.4123 0.65275,-0.80742 1.66462,-1.03901 2.64366,-1.12441 z"
       fill="#313740"
       id="path1022" />
    <path
       d="m 175.67335,24.982292 c 0.59341,-0.04176 1.16044,-0.09303 1.73626,0.09902 0.71209,0.23782 1.36996,0.83 1.67766,1.5186 0.5641,1.26564 0.68864,11.37209 0.12161,12.6553 -0.38828,0.87568 -1.0989,1.29229 -1.94139,1.65835 -0.46593,0.03706 -0.91575,0.06504 -1.37582,-0.04248 -0.76484,-0.17915 -1.44762,-0.65771 -1.83736,-1.34648 -0.72234,-1.27251 -0.82491,-11.21534 -0.31795,-12.69757 0.32234,-0.94526 1.09744,-1.4174 1.937,-1.84474 z"
       fill="#313740"
       id="path1024" />
  </g>
  <g
     id="g3033"
     inkscape:label="Auto"
     transform="translate(-53.128852,-21.045576)">
    <path
       d="m 711.7728,387.37614 c 2.7755,2.00253 4.1595,4.8435 5.2193,8.02299 0.4761,3.13706 0.4207,6.34465 0.428,9.50978 0,0.87673 0.014,1.75317 0.025,2.62984 0.068,10.50376 0.068,10.50376 -2.8685,14.08606 -1.1735,1.1873 -2.4081,2.18055 -3.7958,3.10567 -0.1921,0.83192 -0.315,1.59412 -0.403,2.43845 -0.044,0.37725 -0.044,0.37725 -0.089,0.76212 -0.094,0.83768 -0.1797,1.67591 -0.2631,2.51474 -0.03,0.2895 -0.059,0.579 -0.09,0.87727 -1.3886,13.79149 -2.7727,31.09556 6.0858,42.64528 3.7683,4.42391 9.0728,7.36176 14.7735,8.38963 0.3225,0.0588 0.645,0.1176 0.9773,0.17818 2.0194,0.28302 4.0631,0.23512 6.0981,0.25181 0.4641,0.005 0.9281,0.0105 1.3922,0.0159 0.986,0.0115 1.9721,0.0225 2.9582,0.0331 7.5671,0.0823 15.1319,0.2012 22.6935,0.51317 0.31,0.0115 0.6201,0.023 0.9395,0.0348 5.4522,0.20668 11.2755,0.43527 16.3789,2.53162 0.2706,0.10596 0.5411,0.21191 0.8198,0.32107 9.6941,3.88223 16.7752,11.08816 20.8984,20.62066 6.1108,15.16801 2.8187,37.09096 2.9443,53.11297 0.014,1.72955 0.029,3.45909 0.044,5.18862 0.1024,11.73809 0.138,23.47516 0.1171,35.21367 0.3191,0.0308 0.3191,0.0308 0.6447,0.0622 0.2793,0.0286 0.5586,0.0573 0.8465,0.0867 0.2768,0.0276 0.5536,0.0553 0.8388,0.0838 1.9543,0.28307 3.6081,1.46895 4.8801,2.93765 1.673,2.40973 2.2126,4.54275 2.1864,7.43662 -2e-4,0.28953 -4e-4,0.57906 -4e-4,0.87737 -8e-4,0.61283 0,1.22567 -0.01,1.83849 -0.01,0.91696 -0.01,1.83379 -0.01,2.75075 -0.031,14.84382 -0.031,14.84382 -3.1346,18.08205 -1.6092,1.45063 -2.9232,2.44366 -5.125,2.63794 -0.2757,0.0258 -0.5515,0.0516 -0.8356,0.0782 -0.2082,0.0169 -0.4164,0.0338 -0.6309,0.0512 0,0.19295 0,0.3859 0,0.58469 0.015,2.04396 0.025,4.08788 0.033,6.13188 0,0.75856 0.01,1.51712 0.014,2.27567 0.1322,17.03082 0.1322,17.03082 -5.7579,23.34234 -3.3045,3.07932 -7.1463,4.27069 -11.556,4.34039 -0.3199,0.006 -0.6398,0.0125 -0.9694,0.019 -1.0976,0.0207 -2.1952,0.0388 -3.2928,0.0566 -0.3975,0.007 -0.7951,0.0135 -1.2047,0.0205 -2.4933,0.0422 -4.9866,0.0812 -7.48,0.11834 -1.483,0.0222 -2.966,0.0455 -4.449,0.07 -26.5186,0.43764 -53.0407,0.34405 -79.56199,0.30877 -0.0473,0.37439 -0.0947,0.74879 -0.14347,1.13454 -0.57004,3.62199 -2.97999,6.8954 -5.37773,9.56277 -0.17882,0.21084 -0.35763,0.42169 -0.54188,0.63893 -4.18542,4.60607 -10.91241,7.42932 -17.03267,7.75339 -8.22343,0.26053 -14.69968,-2.30418 -20.79345,-7.93941 -5.20964,-5.49125 -7.47986,-12.76712 -7.28835,-20.22731 0.34731,-6.97235 3.60076,-13.31296 8.64708,-18.09756 3.34621,-2.85047 6.93514,-4.68317 11.12867,-5.95254 0.38432,-0.12743 0.38432,-0.12743 0.77641,-0.25745 5.58585,-1.58193 12.78548,-0.3242 17.85762,2.3279 5.26731,3.12137 9.1522,7.01049 11.86195,12.50896 0.11101,0.21728 0.22202,0.43453 0.3364,0.65839 0.79002,1.69596 1.14363,3.39701 1.46934,5.22642 0.0467,0.25577 0.0934,0.51154 0.14148,0.77505 0.11421,0.62669 0.22672,1.25369 0.3389,1.88074 23.11599,0.0888 46.22809,0.0101 69.34269,-0.24933 2.2144,-0.0246 4.4289,-0.0467 6.6433,-0.0676 2.7207,-0.0258 5.4413,-0.0555 8.1619,-0.09 1.4026,-0.0178 2.8052,-0.0339 4.208,-0.0459 1.2936,-0.0111 2.5872,-0.027 3.8807,-0.0467 0.6928,-0.009 1.3856,-0.0137 2.0784,-0.0179 0.4128,-0.008 0.8256,-0.0144 1.2509,-0.0219 0.3561,-0.004 0.7122,-0.009 1.0791,-0.0125 1.4488,-0.19795 2.6122,-0.73752 3.6855,-1.73414 1.4099,-2.67882 1.2634,-5.88758 1.3399,-8.8331 0.014,-0.46751 0.029,-0.93501 0.043,-1.40249 0.037,-1.22016 0.072,-2.44038 0.1054,-3.66065 0.035,-1.24931 0.073,-2.49851 0.1113,-3.74772 0.074,-2.44352 0.1439,-4.88713 0.2116,-7.33082 -0.2097,-0.0187 -0.4194,-0.0373 -0.6354,-0.0565 -0.277,-0.0272 -0.5539,-0.0543 -0.8393,-0.0823 -0.2737,-0.0258 -0.5474,-0.0516 -0.8295,-0.0781 -2.1498,-0.3437 -3.739,-1.74777 -5.0535,-3.40626 -2.6211,-3.90556 -2.1318,-8.76284 -2.0672,-13.24233 0,-0.70048 0.01,-1.40097 0.01,-2.10145 0.076,-12.75368 0.076,-12.75368 3.2034,-15.88693 2.0434,-1.60603 3.6112,-2.09943 6.2113,-2.06909 -0.01,-0.43203 -0.01,-0.43203 -0.013,-0.87279 -0.1905,-13.53785 -0.3518,-27.07493 -0.3881,-40.61417 -0.01,-1.85975 -0.011,-3.71948 -0.018,-5.57922 0,-1.24016 -0.01,-2.48031 -0.013,-3.72047 -9e-4,-0.30557 0,-0.61115 0,-0.92599 -0.011,-3.46149 -0.02,-6.92296 -0.024,-10.38447 0,-2.83824 -0.011,-5.67641 -0.024,-8.5146 -0.01,-1.47712 -0.011,-2.95415 -0.01,-4.43128 0,-1.36789 0,-2.73561 -0.013,-4.10346 0,-0.49546 0,-0.99093 1e-4,-1.4864 0.03,-6.56563 -2.0921,-12.5576 -6.6491,-17.34185 -3.9371,-3.93639 -8.7817,-6.56028 -14.2421,-7.61817 -0.2663,-0.0579 -0.5326,-0.11579 -0.8071,-0.17545 -0.9125,-0.16857 -1.7861,-0.24826 -2.7124,-0.29836 -0.5312,-0.0294 -0.5312,-0.0294 -1.0731,-0.0594 -0.5771,-0.0297 -0.5771,-0.0297 -1.1658,-0.0599 -0.4079,-0.0215 -0.8158,-0.0431 -1.236,-0.0653 -1.1163,-0.058 -2.2327,-0.1143 -3.3491,-0.16958 -0.7,-0.0348 -1.3999,-0.0704 -2.0999,-0.10613 -5.3923,-0.27322 -10.7797,-0.48099 -16.1789,-0.54195 -0.2363,-0.003 -0.4727,-0.006 -0.7162,-0.009 -2.4972,-0.0296 -4.994,-0.0474 -7.4915,-0.0494 -9.9253,-0.0463 -18.8442,-2.09215 -26.2432,-9.13641 -0.7634,-0.73633 -0.7634,-0.73633 -1.6432,-1.40322 -2.7673,-2.26575 -4.6048,-5.57387 -6.369,-8.63091 -0.1637,-0.27934 -0.3274,-0.5587 -0.4961,-0.84652 -3.01531,-5.54071 -3.73575,-11.98425 -4.03302,-18.17572 -0.0146,-0.28936 -0.0292,-0.57871 -0.0443,-0.87684 -0.48511,-9.91722 -0.31859,-19.86593 -0.25764,-29.79168 -0.32495,-0.0491 -0.64989,-0.0983 -0.98469,-0.14895 -2.3131,-0.41782 -4.04172,-1.88835 -5.37764,-3.77628 -2.6161,-4.35777 -1.99137,-10.29358 -2.00237,-15.22188 -0.003,-0.91148 -0.0141,-1.82271 -0.025,-2.73414 -0.0337,-5.32961 0.60015,-9.80535 4.29186,-13.92026 4.85331,-4.58186 11.6718,-4.57133 17.1675,-1.20776 z"
       fill="#162635"
       id="path2324"
       style="stroke-width:0.345075" />
    <path
       d="m 724.90201,309.42813 c 0.28229,0.0134 0.56469,0.0267 0.85553,0.0405 8.54029,0.42308 8.54029,0.42308 12.35495,2.05383 0.24406,0.10301 0.48802,0.20601 0.73947,0.31214 5.95459,2.64062 9.89883,7.0052 12.40258,12.68147 0.85141,2.50146 0.95617,5.01892 1.11606,7.62947 0.0422,0.62382 0.0422,0.62382 0.0866,1.26023 0.54166,8.31288 0.67621,16.61811 0.66892,24.94345 -8.4e-4,1.42221 -1.1e-4,2.84442 3.2e-4,4.26662 7.4e-4,2.38516 -1.1e-4,4.77031 0,7.15547 0,2.72996 0,5.45991 7.4e-4,8.18986 0,2.37369 0,4.74738 9.5e-4,7.12106 -7.4e-4,1.40466 -7.4e-4,2.8093 3.1e-4,4.21396 0,5.87176 -0.0591,11.72872 -0.324,17.59651 -0.12663,2.81308 -0.18555,5.62689 -0.24132,8.44186 -0.019,0.94556 -0.0391,1.89111 -0.0602,2.83664 -0.0591,2.6798 -0.11754,5.35961 -0.17088,8.03952 -0.0327,1.66022 -0.0697,3.32036 -0.10761,4.98049 -0.0137,0.6236 -0.0264,1.24724 -0.038,1.8709 -0.1639,8.88894 -0.1639,8.88894 -2.29633,12.58517 -0.1298,0.23315 -0.25969,0.4663 -0.3935,0.7065 -0.95765,1.684 -1.98405,3.24999 -3.34185,4.67902 -0.18513,0.20098 -0.37016,0.40199 -0.56089,0.60907 -4.38283,4.44365 -11.20002,7.04857 -17.58729,7.31275 -3.30447,0.0725 -6.60872,0.0132 -9.91266,-0.0573 0,-3.1595 0,-6.31901 0,-9.57424 0.73429,-0.0335 1.46858,-0.067 2.22505,-0.10151 0.72859,-0.0382 1.45717,-0.0763 2.18576,-0.11554 0.49773,-0.0259 0.99567,-0.0496 1.49361,-0.0716 5.56459,-0.24579 10.48559,-1.21094 14.43511,-5.097 3.28694,-3.74957 3.05186,-8.37943 3.17637,-12.98025 0.0158,-0.54738 0.0317,-1.09477 0.0465,-1.64216 0.0507,-1.80781 0.0972,-3.61571 0.14331,-5.42365 0.0106,-0.3133 0.0158,-0.62658 0.0243,-0.94937 0.39106,-15.21444 0.42179,-30.42569 0.39455,-45.64378 0,-2.87969 -0.0106,-5.75938 -0.0106,-8.63908 2.1e-4,-3.53673 0,-7.07346 0,-10.61018 -7.4e-4,-0.98498 -9.5e-4,-1.96999 -9.5e-4,-2.95498 -8.5e-4,-3.86668 -0.0148,-7.73307 -0.0528,-11.5996 -0.0106,-0.57693 -0.0106,-1.15387 -0.0158,-1.73082 -0.0148,-1.7147 -0.038,-3.42901 -0.0729,-5.14347 -0.0106,-0.5241 -0.0169,-1.04825 -0.0222,-1.57241 -0.0444,-4.30508 -0.78339,-8.22347 -3.90653,-11.55759 -3.78985,-3.0058 -7.82216,-3.74857 -12.64432,-3.9508 -0.33541,-0.0144 -0.67072,-0.0288 -1.01616,-0.0436 -3.44619,-0.13795 -6.88869,-0.15858 -10.33753,-0.15422 -0.66934,-2.3e-4 -1.33868,-6.8e-4 -2.00802,-8.4e-4 -1.39329,-3.5e-4 -2.78668,2e-4 -4.18007,0.002 -1.39824,0.002 -2.79649,0.002 -4.19484,0 -6.80125,-0.008 -13.60388,-0.004 -20.40381,0.13759 -0.53713,0.0108 -1.07429,0.0201 -1.61147,0.0277 -4.94534,0.0746 -9.46821,0.68358 -13.22331,3.94372 -2.8938,2.94052 -4.07555,6.26612 -4.14375,10.24367 -0.0106,0.39727 -0.0106,0.39727 -0.0211,0.80256 -0.0222,0.9091 -0.0387,1.81821 -0.0546,2.72743 -0.006,0.32852 -0.0134,0.65707 -0.0204,0.99556 -0.23392,11.57898 -0.17373,23.16359 -0.166,34.7441 0.002,2.28193 7.3e-4,4.56385 -7.3e-4,6.84578 -0.008,12.83298 -8.9e-4,25.66467 0.20979,38.49638 0.0106,0.66252 0.0106,0.66252 0.0214,1.33843 0.0402,2.43089 0.0893,4.86141 0.15102,7.29191 0.0204,0.81564 0.0392,1.63134 0.0567,2.44705 0.0279,1.2517 0.0628,2.50306 0.0995,3.75455 0.007,0.37399 0.0148,0.74797 0.0225,1.13329 0.14394,4.29256 1.43828,8.20454 4.83908,11.22546 2.8714,2.19587 6.08895,3.16566 9.7313,3.24974 0.38518,0.0107 0.38518,0.0107 0.77812,0.0216 0.81679,0.0223 1.63362,0.0424 2.45047,0.0626 0.55518,0.0148 1.11036,0.0296 1.66553,0.0447 1.35802,0.0366 2.71608,0.0711 4.07417,0.10485 0.78931,3.32571 1.29536,6.5069 1.45771,9.91618 -1.61927,0.0171 -3.23848,0.0295 -4.85783,0.0375 -0.54842,0.003 -1.09684,0.008 -1.64525,0.014 -8.54343,0.091 -15.76245,-1.33045 -22.19545,-6.95445 -4.29327,-4.26185 -6.60936,-9.67888 -6.75328,-15.50738 -0.006,-0.24652 -0.0134,-0.49303 -0.0204,-0.74702 -0.0212,-0.78657 -0.0404,-1.57317 -0.0593,-2.3598 -0.0787,-3.16867 -0.17683,-6.3329 -0.3583,-9.49803 -0.18458,-3.3688 -0.30958,-6.73622 -0.38907,-10.10859 -0.0114,-0.47768 -0.0114,-0.47768 -0.0229,-0.96499 -0.26039,-11.42327 -0.209,-22.85206 -0.20819,-34.27732 -1.1e-4,-2.26423 -0.003,-4.52844 -0.007,-6.79266 -0.047,-24.63335 -0.047,-24.63335 0.29172,-34.73864 0.0248,-0.74629 0.0473,-1.49264 0.067,-2.23906 0.20854,-7.47207 1.91549,-13.38747 7.73369,-18.79336 6.309,-5.53905 13.34019,-6.31682 21.61501,-6.56092 0.41411,-0.0134 0.82822,-0.0267 1.25488,-0.0406 13.56985,-0.4346 27.22806,-0.59345 40.79084,0.0619 z"
       fill="#162534"
       id="path2326"
       style="stroke-width:0.353003" />
    <path
       d="m 813.9581,575.87322 c 2.3214,-0.028 4.615,0.0464 6.9298,0.21702 0.3368,0.024 0.6735,0.0481 1.0206,0.0728 1.1243,0.0812 2.2483,0.16489 3.3723,0.24934 0.586,0.0439 0.586,0.0439 1.184,0.0886 7.3561,0.55485 14.7084,1.16165 22.0575,1.80413 1.1961,0.10442 2.3925,0.20626 3.589,0.30592 1.4248,0.11889 2.8492,0.24342 4.2732,0.37214 0.5278,0.0468 1.0557,0.0917 1.5838,0.13458 6.1712,0.50391 6.1712,0.50391 8.096,2.72952 0.4518,1.21414 0.5034,2.05465 0.3451,3.34291 -0.8804,1.65911 -2.1054,2.85676 -3.4507,4.1409 0.5105,1.22308 1.1809,1.89878 2.1782,2.7606 1.4053,1.23333 2.79196,2.4812 4.16246,3.75269 1.1115,1.02994 2.2235,2.05911 3.347,3.07601 4.4891,4.06649 8.5918,8.11177 11.7824,13.31099 0.6017,0.8906 1.2458,1.60861 1.9949,2.37644 1.2099,1.30633 1.9725,2.64897 2.7175,4.24873 0.099,0.21162 0.1975,0.42325 0.2993,0.64129 1.2928,2.91668 1.5824,5.62275 1.6633,8.78356 0.06,2.04072 0.1212,4.08083 0.275,6.11699 0.03,0.40877 0.03,0.40877 0.06,0.82579 0.228,0.98144 0.8372,1.38475 1.6476,1.93346 1.9349,1.60418 3.1991,4.55254 3.4446,7.00782 0.072,4.7968 0.1368,9.27402 -1.4805,13.83551 -0.129,0.3732 -0.2581,0.74641 -0.391,1.13092 -0.9185,2.41165 -2.1566,4.4382 -3.7501,6.46073 -0.3143,0.40567 -0.3143,0.40567 -0.6349,0.81955 -3.7771,4.57285 -10.0909,7.40399 -15.9286,8.15239 -2.3076,0.14128 -4.5888,0.0642 -6.90156,0 0,-3.18849 0,-6.37698 0,-9.6621 1.56936,-0.1281 1.56936,-0.1281 3.17046,-0.2588 4.7229,-0.4506 9.0616,-1.33533 12.3687,-5.00494 2.7287,-3.6017 3.42,-7.71928 3.6341,-12.1194 0.022,-0.43037 0.022,-0.43037 0.045,-0.86942 0.037,-0.70223 0.071,-1.40454 0.1058,-2.10685 -0.285,0.003 -0.5701,0.006 -0.8638,0.009 -2.6908,0.0277 -5.3815,0.0487 -8.0724,0.0622 -1.3833,0.007 -2.7664,0.0169 -4.1497,0.0326 -1.3357,0.015 -2.6714,0.0233 -4.0072,0.0269 -0.5088,0.003 -1.0175,0.008 -1.5262,0.015 -0.71456,0.0101 -1.42866,0.0114 -2.14326,0.0108 -0.4061,0.003 -0.8122,0.006 -1.2307,0.009 -1.5716,-0.23154 -2.7037,-0.92409 -3.6932,-2.17174 -0.2983,-1.16018 -0.1331,-2.01372 0.151,-3.17037 0.6292,-0.93367 1.0609,-1.5657 2.0705,-2.07044 0.5744,-0.0312 1.1502,-0.0405 1.7255,-0.0392 0.5388,4e-5 0.5388,4e-5 1.0885,8e-5 0.3889,0.002 0.7778,0.003 1.1786,0.005 0.59586,6.9e-4 0.59586,6.9e-4 1.20396,0.002 1.2728,0.002 2.5456,0.006 3.8184,0.0106 0.8614,0.002 1.7227,0.003 2.584,0.005 2.115,0.004 4.2299,0.01 6.3448,0.0168 -0.057,-1.70653 -0.1236,-3.41222 -0.2001,-5.11798 -0.025,-0.57884 -0.046,-1.15779 -0.065,-1.73684 -0.1103,-3.33833 -0.2127,-6.16329 -2.1504,-9.01851 -0.2135,-0.3274 -0.4271,-0.65479 -0.647,-0.9921 -1.6814,-1.68138 -3.5987,-2.33498 -5.8892,-2.76733 -0.3895,-0.0791 -0.3895,-0.0791 -0.7869,-0.15975 -0.5556,-0.11247 -1.1117,-0.22312 -1.668,-0.33209 -1.1755,-0.23101 -2.34856,-0.47336 -3.52196,-0.71503 -0.8936,-0.18395 -1.7875,-0.3666 -2.6814,-0.549 -8.2419,-1.68554 -14.9987,-3.34606 -21.7056,-8.5829 -1.4147,-1.10405 -2.8674,-2.1467 -4.3363,-3.17711 -0.2437,-0.17109 -0.4874,-0.34218 -0.7384,-0.51845 -2.3445,-1.64132 -4.6974,-3.2704 -7.0628,-4.88126 -0.418,-0.28474 -0.8354,-0.57011 -1.2523,-0.85629 -4.1313,-2.83284 -8.4139,-5.42376 -12.6899,-8.03023 -0.6391,-0.39465 -1.2692,-0.80392 -1.8942,-1.22057 -0.092,-0.97907 -0.12,-1.88197 -0.1011,-2.86034 0,-0.28242 0,-0.56484 0,-0.85582 0.01,-0.90373 0.019,-1.8072 0.032,-2.71085 0.01,-0.61197 0.01,-1.22394 0.014,-1.83591 0.011,-1.50171 0.029,-3.00323 0.051,-4.50485 z"
       fill="#172635"
       id="path2330"
       style="stroke-width:0.345075" />
    <path
       d="m 775.0872,574.81431 c 1.5506,0.003 3.1013,0.005 4.6519,0.007 3.0095,0.003 6.019,0.01 9.0285,0.0168 0,3.18848 0,6.37697 0,9.66208 -1.0025,0.008 -1.0025,0.008 -2.0252,0.0153 -12.0722,0.0973 -24.1326,0.25107 -36.1918,0.84744 -0.2314,0.0114 -0.4628,0.0228 -0.7012,0.0345 -2.6858,0.13254 -5.371,0.27429 -8.0557,0.42735 -0.8832,0.0496 -1.7664,0.0958 -2.6498,0.14069 -14.7448,0.82503 -29.2523,12.53738 -41.27784,20.17533 -2.53021,1.60557 -5.07365,3.18689 -7.63882,4.7361 -0.27501,0.16711 -0.55002,0.33423 -0.83337,0.50641 -5.27317,3.16445 -10.13419,4.30815 -16.16674,5.18503 -1.79012,0.2609 -3.57884,0.53118 -5.36774,0.80028 -0.52787,0.0792 -0.52787,0.0792 -1.0664,0.15993 -6.86553,1.03102 -13.66372,2.28447 -20.45495,3.72216 -0.45794,0.0961 -0.45794,0.0961 -0.92515,0.19417 -7.86773,1.64718 -7.86773,1.64718 -15.33649,4.55061 -0.27345,0.13258 -0.54691,0.26517 -0.82866,0.40177 -4.40151,2.21021 -7.94584,5.43194 -9.56672,10.20927 -0.13101,0.59872 -0.25418,1.19917 -0.37068,1.80086 -0.0603,0.30938 -0.12072,0.61876 -0.1829,0.93751 -0.045,0.23508 -0.0901,0.47017 -0.13656,0.71239 0.22096,-0.003 0.44193,-0.006 0.6696,-0.009 2.30066,-0.0305 4.60126,-0.0513 6.90207,-0.0665 0.85855,-0.007 1.71709,-0.0163 2.57559,-0.0283 1.23434,-0.0167 2.46846,-0.0246 3.7029,-0.0307 0.57539,-0.0107 0.57539,-0.0107 1.16241,-0.0216 2.67182,-6.9e-4 2.67182,-6.9e-4 4.0202,0.81587 1.03924,1.17694 1.33429,1.68033 1.30507,3.2873 -0.38401,1.45923 -0.88755,2.01458 -2.04888,2.95471 -1.0365,0.34549 -1.71758,0.38687 -2.79995,0.38425 -0.35917,-4e-5 -0.71834,-6e-5 -1.08839,-9e-5 -0.38717,-0.002 -0.77432,-0.003 -1.17321,-0.005 -0.39682,-3.4e-4 -0.79364,-8.5e-4 -1.20248,-0.002 -1.26929,-0.002 -2.53857,-0.006 -3.80785,-0.0106 -0.85976,-0.002 -1.71952,-0.003 -2.5793,-0.005 -2.10932,-0.003 -4.21863,-0.01 -6.32794,-0.0168 -0.0344,1.51572 -0.0593,3.03122 -0.0758,4.54722 -0.007,0.51439 -0.0162,1.02876 -0.0283,1.54306 -0.14546,4.70197 -0.14546,4.70197 2.08527,8.69974 2.86624,2.66493 6.36875,2.51748 10.07491,2.65782 0.36765,0.0149 0.73529,0.0298 1.11408,0.0451 0.90106,0.0364 1.80216,0.0716 2.70331,0.10582 0.11659,1.222 0.23102,2.44419 0.34507,3.66642 0.0329,0.34474 0.0659,0.68948 0.0997,1.04467 0.0311,0.33584 0.0623,0.67167 0.0944,1.01769 0.0289,0.30721 0.0578,0.61441 0.0876,0.93093 0.0682,1.00341 0.0737,1.99697 0.0634,3.00239 -1.38583,0.0261 -2.77156,0.0446 -4.15758,0.0569 -0.69677,0.008 -1.39348,0.0207 -2.09016,0.0342 -4.99076,0.0369 -8.96719,-0.70586 -13.07644,-3.54174 -0.22598,-0.15168 -0.45195,-0.30337 -0.68477,-0.45965 -3.28174,-2.49142 -5.51768,-6.67799 -6.5618,-10.58274 -0.20139,-1.92124 -0.18216,-3.8084 -0.12941,-5.73687 0.009,-0.52392 0.0161,-1.04785 0.0232,-1.57179 0.0231,-1.47509 0.0633,-2.94923 0.10623,-4.42388 0.009,-0.35436 0.0163,-0.70871 0.0247,-1.07381 0.2142,-8.76578 1.68669,-17.59766 8.18424,-24.03847 9.81503,-8.56204 22.40685,-11.0555 34.86064,-13.42826 0.26138,-0.0499 0.52275,-0.0999 0.79204,-0.15132 5.00318,-0.95009 10.03051,-1.6974 15.07283,-2.40603 1.18695,-0.16729 2.3735,-0.3373 3.56,-0.5078 0.60085,-0.0855 1.20193,-0.16934 1.80321,-0.25172 4.60241,-0.57305 4.60241,-0.57305 8.85813,-2.31216 0.21193,-0.11029 0.42386,-0.22057 0.64221,-0.33421 0.64203,-0.3363 1.27276,-0.68771 1.90272,-1.04609 0.23316,-0.13197 0.46634,-0.26394 0.70657,-0.39992 2.71976,-1.55764 5.35683,-3.24573 7.99595,-4.93509 5.06382,-3.24056 10.17373,-6.40068 15.32333,-9.5032 0.2696,-0.16292 0.5393,-0.32584 0.8172,-0.49369 11.2315,-6.76884 21.7116,-11.20734 34.8905,-11.9119 0.7016,-0.0377 1.4029,-0.0788 2.1042,-0.12022 9.7491,-0.55727 19.4936,-0.63611 29.2551,-0.61083 z"
       fill="#172635"
       id="path2332"
       style="stroke-width:0.345075" />
    <path
       d="m 851.2261,646.26847 c 0.2905,0.23443 0.581,0.46885 0.8803,0.71037 5.2293,4.45166 8.6271,10.823 9.1928,17.68796 0.4,7.96599 -1.8809,14.65897 -6.9957,20.76227 -4.6203,4.97169 -11.1739,7.89627 -17.89,8.20091 -6.865,0.21072 -13.3099,-1.7123 -18.58,-6.25852 -5.4682,-5.18086 -8.647,-11.38442 -9.1337,-18.90901 -0.1366,-6.9061 1.9091,-13.56998 6.6386,-18.74323 0.2763,-0.30781 0.5524,-0.61563 0.837,-0.93278 9.0636,-9.60128 24.6936,-10.96676 35.0507,-2.51797 z"
       fill="#162635"
       id="path2334"
       style="stroke-width:0.345075" />
    <path
       d="m 841.2189,651.44459 c 0.2314,0.0881 0.4627,0.17616 0.701,0.2669 4.3937,1.90047 7.232,5.85697 8.9679,10.14332 1.4228,4.10956 1.0255,8.75753 -0.8088,12.6424 -2.2899,4.43556 -5.5171,7.3805 -10.2781,9.07843 -4.2589,0.97066 -8.9364,0.88833 -12.73,-1.41939 -0.4924,-0.29492 -0.4924,-0.29492 -0.9947,-0.59579 -3.8045,-2.51901 -6.3209,-6.25789 -7.3733,-10.68384 -0.8768,-5.14129 -0.047,-9.40997 2.8778,-13.72615 4.5953,-6.09888 12.4222,-8.71255 19.6382,-5.70588 z"
       fill="#fafbfb"
       id="path2336"
       style="stroke-width:0.345075" />
    <path
       d="m 673.85776,651.44459 c 0.31049,0.13879 0.62097,0.27758 0.94087,0.42057 4.36343,2.16369 7.09335,5.6438 8.85062,10.12578 1.38087,4.50812 0.76251,8.93099 -1.2509,13.12767 -2.33887,4.28573 -5.8075,6.89815 -10.3738,8.46512 -1.46895,0.3439 -2.8109,0.41688 -4.31344,0.40573 -0.27445,-0.002 -0.5489,-0.004 -0.83168,-0.006 -4.39425,-0.0906 -8.15264,-1.84517 -11.31063,-4.93299 -3.44143,-4.17447 -4.78238,-8.46772 -4.48598,-13.80298 0.58719,-4.35909 2.40145,-8.36088 5.8474,-11.18528 5.05648,-3.51592 10.98513,-5.29484 16.92754,-2.61772 z"
       fill="#f9fafb"
       id="path2338"
       style="stroke-width:0.345075" />
    <path
       d="m 691.39651,355.57611 c 0.3032,-0.003 0.6064,-0.005 0.9188,-0.007 1.0002,-0.006 2.00022,-0.005 3.00044,-0.003 0.6966,-0.002 1.39322,-0.003 2.08983,-0.005 1.45937,-0.003 2.91867,-0.003 4.37802,8.5e-4 1.8686,0.004 3.737,-0.003 5.6056,-0.0131 1.4384,-0.006 2.8768,-0.006 4.3153,-0.004 0.6888,5e-5 1.3777,-0.002 2.0665,-0.006 0.964,-0.005 1.9275,-0.002 2.8914,0.004 0.2835,-0.003 0.567,-0.007 0.8591,-0.0101 1.8239,0.0234 2.8468,0.36811 4.3016,1.56353 1.1682,1.32386 1.2134,2.63441 1.1552,4.335 -0.1814,1.272 -0.6334,1.97636 -1.5002,2.91157 -1.7414,1.0976 -3.1573,1.18892 -5.1498,1.1856 -0.454,0.005 -0.454,0.005 -0.9173,0.0105 -0.9966,0.01 -1.9931,0.0119 -2.9898,0.013 -0.6953,0.003 -1.3906,0.007 -2.0859,0.0105 -1.4558,0.006 -2.9116,0.008 -4.3675,0.008 -1.8628,-1.1e-4 -3.7253,0.014 -5.588,0.0319 -1.4355,0.0116 -2.8709,0.0136 -4.30645,0.0131 -0.68666,8.5e-4 -1.37332,0.006 -2.05993,0.0138 -0.96151,0.0102 -1.92212,0.007 -2.88364,8.5e-4 -0.28169,0.006 -0.56339,0.0117 -0.85362,0.0176 -1.88094,-0.0308 -2.85557,-0.51767 -4.23359,-1.79439 -1.01046,-1.21801 -0.91194,-2.66173 -0.8944,-4.16575 0.14378,-1.28199 0.62245,-1.98851 1.47736,-2.93583 1.54682,-1.20833 2.8906,-1.18493 4.77098,-1.17466 z"
       fill="#58992c"
       id="path2340"
       style="stroke-width:0.345075" />
    <path
       d="m 839.8413,658.25982 c 2.3915,1.50048 4.0345,3.17232 4.8284,5.95255 0.4321,2.9466 0.4062,5.99445 -1.1686,8.59856 -1.5839,2.04394 -3.4822,3.70287 -6.0779,4.1692 -3.2174,0.32066 -5.9665,0.25118 -8.6269,-1.72537 -0.8234,-0.73582 -1.4528,-1.50257 -2.0704,-2.41553 -0.1424,-0.18549 -0.2848,-0.37098 -0.4314,-0.56209 -1.4816,-2.29957 -1.3165,-5.43596 -0.9489,-8.06477 0.3819,-1.23526 0.9034,-2.11481 1.7253,-3.10568 0.1753,-0.22197 0.3505,-0.44393 0.5311,-0.67262 3.0385,-3.43457 8.1717,-4.3198 12.2393,-2.17425 z"
       fill="#162534"
       id="path2342"
       style="stroke-width:0.345075" />
    <path
       d="m 672.39119,658.214 c 2.24077,1.37714 3.83732,3.1878 4.70165,5.6843 0.59325,2.76232 0.78453,5.90162 -0.75351,8.37749 -0.13567,0.18594 -0.27134,0.37187 -0.41112,0.56344 -0.25622,0.36299 -0.51244,0.72596 -0.77642,1.09993 -2.28897,2.341 -4.35904,3.08664 -7.59165,3.14881 -2.12377,0.007 -3.70041,-0.22252 -5.43492,-1.48813 -0.36298,-0.25623 -0.72595,-0.51244 -1.09993,-0.77643 -2.13423,-2.08679 -3.06289,-4.0604 -3.14173,-7.03452 -0.0232,-2.39399 0.0156,-4.34939 1.48106,-6.33712 0.20639,-0.30604 0.4128,-0.61208 0.62544,-0.92739 3.29595,-3.48427 7.98427,-4.38805 12.40113,-2.31038 z"
       fill="#162534"
       id="path2344"
       style="stroke-width:0.345075" />
    <path
       d="m 827.7611,585.53532 c 2.7092,-0.0587 5.3713,0.12488 8.0688,0.36529 0.6491,0.0563 0.6491,0.0563 1.3115,0.11358 0.9101,0.0791 1.8202,0.1587 2.7301,0.23933 1.1592,0.1027 2.3186,0.20365 3.4781,0.30395 1.1168,0.0967 2.2334,0.1944 3.3501,0.2921 0.4127,0.0359 0.8254,0.0719 1.2506,0.10897 2.0184,0.17892 4.028,0.37848 6.0364,0.64723 0.01,0.26689 0.018,0.53379 0.027,0.80877 0.235,4.31387 1.762,6.52406 4.8041,9.54347 0.665,0.59219 1.3376,1.17499 2.0112,1.75748 1.3013,1.1426 2.5544,2.33619 3.812,3.52648 0.3922,0.36998 0.3922,0.36998 0.7925,0.74743 1.8879,1.78205 1.8879,1.78205 2.70126,2.59548 -2.46096,-0.33125 -4.88146,-0.82064 -7.31136,-1.32731 -0.5166,-0.10701 -1.0335,-0.21239 -1.5508,-0.31609 -3.8183,-0.76584 -6.7991,-1.6278 -9.8581,-4.17973 -5.4495,-4.39079 -11.3709,-8.16608 -17.2036,-12.02143 -0.2433,-0.1612 -0.4866,-0.32239 -0.7372,-0.48847 -0.461,-0.30539 -0.9224,-0.61013 -1.3844,-0.91411 -0.8423,-0.55852 -1.6115,-1.0857 -2.3283,-1.80242 z"
       fill="#f9fafb"
       id="path2346"
       style="stroke-width:0.345075" />
    <path
       d="m 800.9316,608.24555 c 0.3162,-0.004 0.6325,-0.008 0.9584,-0.0128 1.9593,-0.004 3.6323,0.20957 5.5116,0.76765 0.8504,2.30817 0.7953,4.54899 0.7765,6.98777 0,0.42703 0,0.85406 -0.01,1.29402 -0.027,2.53983 -0.113,5.06327 -0.3603,7.59165 -0.024,0.26345 -0.048,0.52689 -0.073,0.79832 -0.1586,1.37382 -0.3202,2.39723 -1.3719,3.34258 -1.4641,0.49771 -3.0384,0.41112 -4.5723,0.40978 -0.3896,3.3e-4 -0.3896,3.3e-4 -0.787,6.9e-4 -1.8673,-0.0178 -3.5377,-0.23184 -5.338,-0.75555 -0.5975,-2.06468 -0.7882,-3.89696 -0.7697,-6.04016 2e-4,-0.30438 4e-4,-0.60879 4e-4,-0.92241 8e-4,-0.63943 0,-1.27888 0.01,-1.9183 0.01,-0.97373 0.01,-1.94734 0.01,-2.92108 0,-0.62433 0,-1.24866 0.01,-1.87299 3e-4,-0.28834 6e-4,-0.57668 8e-4,-0.87376 0.036,-4.40901 0.036,-4.40901 1.092,-5.46563 1.5901,-0.53364 3.2598,-0.40863 4.9173,-0.40978 z"
       fill="#559b26"
       id="path2348"
       style="stroke-width:0.345075" />
    <path
       d="m 618.6458,639.02191 c 0.11387,0.34162 0.22775,0.68325 0.34508,1.03522 0.33145,-0.004 0.33145,-0.004 0.6696,-0.009 2.30066,-0.0305 4.60126,-0.0513 6.90207,-0.0665 0.85855,-0.007 1.71709,-0.0163 2.57559,-0.0283 1.23434,-0.0167 2.46846,-0.0245 3.7029,-0.0307 0.57539,-0.0107 0.57539,-0.0107 1.16241,-0.0216 2.67182,-6.9e-4 2.67182,-6.9e-4 4.0202,0.81587 1.03924,1.17694 1.33429,1.68034 1.30507,3.28731 -0.38401,1.45922 -0.88755,2.01457 -2.04888,2.9547 -1.03649,0.3455 -1.71758,0.38687 -2.79994,0.38425 -0.35918,-2e-5 -0.71835,-5e-5 -1.0884,-7e-5 -0.38717,-0.002 -0.77432,-0.003 -1.17321,-0.005 -0.59522,-6.9e-4 -0.59522,-6.9e-4 -1.20248,-0.002 -1.26929,-0.002 -2.53856,-0.006 -3.80785,-0.0106 -0.85976,-0.002 -1.71952,-0.003 -2.5793,-0.005 -2.10932,-0.003 -4.21863,-0.01 -6.32794,-0.0168 0,1.25263 0,2.50525 0,3.79583 -0.11387,0 -0.22775,0 -0.34507,0 -0.34425,-4.21173 -0.52829,-7.98175 0.69015,-12.07762 z"
       fill="#589b2d"
       id="path2350"
       style="stroke-width:0.345075" />
  </g>
</svg>
